<svg width="240" height="72" viewBox="0 0 240 72" fill="none" xmlns="http://www.w3.org/2000/svg">
<g clip-path="url(#clip0_51:501)">
<path d="M231.461 71.09H8.40711C3.77244 71.09 0 67.308 0 62.6783V8.39928C0 3.76777 3.77244 0 8.40711 0H231.461C236.094 0 240 3.76777 240 8.39928V62.6783C240 67.308 236.094 71.09 231.461 71.09Z" fill="#A6A6A6"/>
<path d="M238.279 62.6801C238.279 66.4408 235.232 69.487 231.463 69.487H8.40717C4.64005 69.487 1.58228 66.4408 1.58228 62.6801V8.39754C1.58228 4.63866 4.64005 1.58179 8.40717 1.58179H231.461C235.232 1.58179 238.277 4.63866 238.277 8.39754L238.279 62.6801Z" fill="black"/>
<path d="M53.5608 35.1611C53.5093 29.4331 58.2524 26.6463 58.4693 26.5166C55.783 22.6013 51.6195 22.0664 50.1564 22.0237C46.6595 21.6558 43.2675 24.1155 41.4861 24.1155C39.6693 24.1155 36.9261 22.0593 33.9697 22.1197C30.1653 22.1783 26.6061 24.3803 24.6541 27.7998C20.6257 34.7719 23.6301 45.0178 27.4897 50.6534C29.4204 53.4135 31.6764 56.4953 34.6293 56.3868C37.5181 56.2678 38.5973 54.5456 42.0835 54.5456C45.5377 54.5456 46.551 56.3868 49.5626 56.3175C52.663 56.2678 54.615 53.545 56.4781 50.7601C58.7093 47.5966 59.6053 44.481 59.6408 44.3211C59.5679 44.2962 53.6195 42.0267 53.5608 35.1611Z" fill="white"/>
<path d="M47.8719 18.3164C49.4257 16.3738 50.4888 13.7311 50.1937 11.0492C47.9448 11.1487 45.1324 12.6043 43.5128 14.5042C42.0799 16.1783 40.7999 18.9224 41.1306 21.503C43.6568 21.6914 46.2506 20.2287 47.8719 18.3164Z" fill="white"/>
<path d="M95.369 55.9905H91.3316L89.1201 49.0432H81.433L79.3263 55.9905H75.3956L83.0116 32.3389H87.7156L95.369 55.9905ZM88.4534 46.1285L86.4534 39.9526C86.2419 39.3217 85.8454 37.8359 85.2605 35.497H85.1894C84.9565 36.503 84.5814 37.9887 84.0658 39.9526L82.1014 46.1285H88.4534Z" fill="white"/>
<path d="M114.955 47.2535C114.955 50.1539 114.171 52.4466 112.603 54.1296C111.198 55.6279 109.454 56.3761 107.372 56.3761C105.125 56.3761 103.511 55.5692 102.528 53.9555H102.457V62.9395H98.6667V44.5503C98.6667 42.7268 98.6187 40.8554 98.5262 38.9359H101.86L102.071 41.6391H102.142C103.406 39.6024 105.324 38.5858 107.899 38.5858C109.911 38.5858 111.591 39.3802 112.935 40.9709C114.283 42.5633 114.955 44.6569 114.955 47.2535ZM111.093 47.3921C111.093 45.7321 110.72 44.3637 109.97 43.2866C109.15 42.1634 108.05 41.6018 106.67 41.6018C105.735 41.6018 104.885 41.9146 104.126 42.5313C103.365 43.1533 102.868 43.9656 102.635 44.9715C102.517 45.4407 102.459 45.8246 102.459 46.1267V48.9703C102.459 50.2108 102.839 51.2576 103.6 52.1125C104.361 52.9673 105.349 53.3939 106.565 53.3939C107.993 53.3939 109.104 52.8429 109.899 51.7446C110.695 50.6445 111.093 49.1942 111.093 47.3921Z" fill="white"/>
<path d="M134.576 47.2535C134.576 50.1539 133.792 52.4466 132.222 54.1296C130.82 55.6279 129.076 56.3761 126.994 56.3761C124.747 56.3761 123.133 55.5692 122.151 53.9555H122.08V62.9395H118.29V44.5503C118.29 42.7268 118.242 40.8554 118.149 38.9359H121.483L121.694 41.6391H121.765C123.028 39.6024 124.946 38.5858 127.522 38.5858C129.533 38.5858 131.213 39.3802 132.56 40.9709C133.902 42.5633 134.576 44.6569 134.576 47.2535ZM130.715 47.3921C130.715 45.7321 130.34 44.3637 129.589 43.2866C128.77 42.1634 127.673 41.6018 126.292 41.6018C125.355 41.6018 124.507 41.9146 123.746 42.5313C122.985 43.1533 122.489 43.9656 122.256 44.9715C122.141 45.4407 122.08 45.8246 122.08 46.1267V48.9703C122.08 50.2108 122.461 51.2576 123.218 52.1125C123.979 52.9655 124.967 53.3939 126.187 53.3939C127.614 53.3939 128.725 52.8429 129.52 51.7446C130.317 50.6445 130.715 49.1942 130.715 47.3921Z" fill="white"/>
<path d="M156.514 49.3578C156.514 51.3697 155.815 53.0065 154.413 54.2701C152.871 55.6511 150.725 56.3406 147.968 56.3406C145.422 56.3406 143.381 55.8501 141.837 54.8673L142.715 51.7091C144.379 52.715 146.205 53.2198 148.194 53.2198C149.621 53.2198 150.733 52.8963 151.531 52.253C152.325 51.6096 152.722 50.7459 152.722 49.6688C152.722 48.7091 152.395 47.9005 151.739 47.2447C151.086 46.5889 149.997 45.9793 148.475 45.4159C144.333 43.8715 142.263 41.609 142.263 38.6339C142.263 36.6896 142.989 35.0954 144.441 33.8549C145.888 32.6126 147.819 31.9923 150.233 31.9923C152.386 31.9923 154.174 32.3673 155.602 33.1155L154.654 36.2044C153.321 35.4793 151.813 35.1167 150.126 35.1167C148.793 35.1167 147.751 35.4455 147.005 36.0995C146.373 36.6843 146.057 37.3969 146.057 38.2411C146.057 39.176 146.418 39.9491 147.143 40.5569C147.774 41.1185 148.921 41.7263 150.585 42.3821C152.621 43.2014 154.116 44.1594 155.077 45.2577C156.036 46.3525 156.514 47.7227 156.514 49.3578Z" fill="white"/>
<path d="M169.045 41.7796H164.868V50.0599C164.868 52.1659 165.604 53.218 167.079 53.218C167.756 53.218 168.318 53.1594 168.763 53.0421L168.868 55.9195C168.121 56.1985 167.138 56.3389 165.92 56.3389C164.423 56.3389 163.253 55.8821 162.409 54.9704C161.568 54.0569 161.145 52.5249 161.145 50.3727V41.7761H158.656V38.9325H161.145V35.8099L164.868 34.6866V38.9325H169.045V41.7796Z" fill="white"/>
<path d="M187.895 47.323C187.895 49.9444 187.145 52.0966 185.648 53.7797C184.078 55.5125 181.995 56.3763 179.397 56.3763C176.894 56.3763 174.901 55.5463 173.415 53.8863C171.929 52.2264 171.186 50.131 171.186 47.6055C171.186 44.9628 171.95 42.7981 173.484 41.115C175.015 39.4302 177.081 38.5878 179.678 38.5878C182.181 38.5878 184.196 39.4177 185.716 41.0795C187.17 42.6914 187.895 44.7726 187.895 47.323ZM183.963 47.4456C183.963 45.8727 183.627 44.5238 182.946 43.3988C182.151 42.0374 181.015 41.3585 179.543 41.3585C178.02 41.3585 176.862 42.0392 176.068 43.3988C175.387 44.5256 175.051 45.8958 175.051 47.5167C175.051 49.0895 175.387 50.4385 176.068 51.5617C176.887 52.9231 178.032 53.602 179.509 53.602C180.956 53.602 182.092 52.9089 182.912 51.5262C183.611 50.3798 183.963 49.0167 183.963 47.4456Z" fill="white"/>
<path d="M200.215 42.2683C199.84 42.199 199.44 42.1634 199.021 42.1634C197.687 42.1634 196.656 42.6664 195.931 43.6741C195.3 44.5627 194.983 45.6859 194.983 47.042V55.9904H191.195L191.23 44.3068C191.23 42.3411 191.182 40.5515 191.088 38.9377H194.389L194.528 42.2007H194.633C195.033 41.0793 195.664 40.1765 196.528 39.4993C197.373 38.8897 198.285 38.5858 199.268 38.5858C199.618 38.5858 199.934 38.6107 200.215 38.6551V42.2683Z" fill="white"/>
<path d="M217.166 46.6564C217.166 47.3353 217.122 47.9076 217.028 48.375H205.657C205.701 50.0599 206.251 51.3484 207.307 52.237C208.265 53.0314 209.504 53.4295 211.026 53.4295C212.709 53.4295 214.245 53.1612 215.627 52.6227L216.22 55.253C214.606 55.9568 212.7 56.3069 210.501 56.3069C207.856 56.3069 205.78 55.5285 204.268 53.9734C202.761 52.4183 202.005 50.33 202.005 47.7103C202.005 45.1387 202.708 42.9971 204.114 41.2891C205.586 39.4657 207.575 38.554 210.078 38.554C212.537 38.554 214.398 39.4657 215.662 41.2891C216.663 42.7376 217.166 44.5291 217.166 46.6564ZM213.552 45.6736C213.577 44.5504 213.33 43.58 212.816 42.7607C212.16 41.7068 211.152 41.1807 209.796 41.1807C208.556 41.1807 207.548 41.6944 206.779 42.7252C206.148 43.5445 205.772 44.5273 205.657 45.6718H213.552V45.6736Z" fill="white"/>
<path d="M87.2 17.7886C87.2 19.8804 86.5725 21.455 85.3191 22.5125C84.1582 23.4882 82.5085 23.9769 80.3716 23.9769C79.312 23.9769 78.4054 23.9307 77.6462 23.8383V12.4088C78.6365 12.2489 79.7031 12.1671 80.8551 12.1671C82.8907 12.1671 84.4249 12.6096 85.4596 13.4947C86.6187 14.4953 87.2 15.926 87.2 17.7886ZM85.2356 17.8401C85.2356 16.4841 84.8765 15.4444 84.1582 14.7192C83.44 13.9959 82.3911 13.6333 81.0098 13.6333C80.4231 13.6333 79.9236 13.6724 79.5094 13.7542V22.4432C79.7387 22.4787 80.1582 22.4947 80.768 22.4947C82.1938 22.4947 83.2942 22.0984 84.0694 21.3057C84.8445 20.5131 85.2356 19.3579 85.2356 17.8401Z" fill="white"/>
<path d="M97.616 19.6156C97.616 20.9041 97.248 21.9598 96.512 22.788C95.7404 23.6393 94.7182 24.0641 93.4417 24.0641C92.2115 24.0641 91.232 23.6571 90.5013 22.8395C89.7724 22.0238 89.408 20.9947 89.408 19.7542C89.408 18.4568 89.7831 17.3923 90.5368 16.5658C91.2906 15.7394 92.304 15.3253 93.5804 15.3253C94.8106 15.3253 95.7991 15.7323 96.5475 16.5481C97.2586 17.3407 97.616 18.3644 97.616 19.6156ZM95.6835 19.676C95.6835 18.9029 95.5164 18.24 95.184 17.6873C94.7928 17.019 94.2364 16.6849 93.5129 16.6849C92.7644 16.6849 92.1955 17.019 91.8044 17.6873C91.4702 18.24 91.3048 18.9136 91.3048 19.7098C91.3048 20.4829 91.472 21.1458 91.8044 21.6985C92.208 22.3668 92.7697 22.7009 93.4951 22.7009C94.2062 22.7009 94.7644 22.3614 95.1662 21.6808C95.5111 21.1174 95.6835 20.4491 95.6835 19.676Z" fill="white"/>
<path d="M111.582 15.4958L108.96 23.8738H107.253L106.167 20.2358C105.892 19.3276 105.668 18.4248 105.493 17.529H105.46C105.298 18.4496 105.074 19.3507 104.786 20.2358L103.632 23.8738H101.906L99.4401 15.4958H101.355L102.302 19.4787C102.532 20.4206 102.72 21.3181 102.871 22.1676H102.905C103.044 21.4674 103.273 20.5752 103.597 19.4964L104.786 15.4976H106.304L107.444 19.4111C107.719 20.3655 107.943 21.2844 108.116 22.1694H108.167C108.293 21.3075 108.484 20.3886 108.736 19.4111L109.753 15.4976H111.582V15.4958Z" fill="white"/>
<path d="M121.241 23.8739H119.378V19.0753C119.378 17.5966 118.816 16.8573 117.689 16.8573C117.136 16.8573 116.69 17.0599 116.343 17.4669C116 17.8739 115.826 18.3537 115.826 18.9029V23.8721H113.963V17.8899C113.963 17.1541 113.94 16.3561 113.895 15.4923H115.532L115.62 16.8022H115.671C115.888 16.3952 116.212 16.0593 116.636 15.7909C117.141 15.4781 117.707 15.3199 118.325 15.3199C119.108 15.3199 119.758 15.5723 120.276 16.0788C120.919 16.6991 121.241 17.625 121.241 18.8549V23.8739Z" fill="white"/>
<path d="M126.379 23.8739H124.517V11.6517H126.379V23.8739Z" fill="white"/>
<path d="M137.348 19.6156C137.348 20.9041 136.98 21.9598 136.244 22.788C135.472 23.6393 134.448 24.0641 133.173 24.0641C131.941 24.0641 130.962 23.6571 130.233 22.8395C129.504 22.0238 129.14 20.9947 129.14 19.7542C129.14 18.4568 129.515 17.3923 130.268 16.5658C131.022 15.7394 132.036 15.3253 133.31 15.3253C134.542 15.3253 135.529 15.7323 136.279 16.5481C136.99 17.3407 137.348 18.3644 137.348 19.6156ZM135.413 19.676C135.413 18.9029 135.246 18.24 134.914 17.6873C134.524 17.019 133.966 16.6849 133.244 16.6849C132.494 16.6849 131.925 17.019 131.536 17.6873C131.202 18.24 131.036 18.9136 131.036 19.7098C131.036 20.4829 131.204 21.1458 131.536 21.6985C131.94 22.3668 132.501 22.7009 133.227 22.7009C133.938 22.7009 134.494 22.3614 134.896 21.6808C135.243 21.1174 135.413 20.4491 135.413 19.676Z" fill="white"/>
<path d="M146.365 23.8739H144.692L144.553 22.9088H144.501C143.929 23.6784 143.113 24.0641 142.053 24.0641C141.262 24.0641 140.622 23.8099 140.141 23.3052C139.703 22.8466 139.484 22.2761 139.484 21.599C139.484 20.5753 139.911 19.7951 140.77 19.2548C141.627 18.7145 142.832 18.4497 144.384 18.4622V18.3058C144.384 17.2021 143.804 16.6511 142.644 16.6511C141.817 16.6511 141.088 16.8591 140.459 17.2714L140.08 16.0487C140.859 15.567 141.821 15.3253 142.955 15.3253C145.145 15.3253 146.244 16.4805 146.244 18.791V21.8763C146.244 22.7133 146.285 23.3798 146.365 23.8739ZM144.43 20.9947V19.7027C142.375 19.6671 141.348 20.2305 141.348 21.3911C141.348 21.8283 141.465 22.1553 141.705 22.3739C141.945 22.5925 142.251 22.7009 142.615 22.7009C143.024 22.7009 143.406 22.5712 143.755 22.3135C144.105 22.054 144.32 21.7252 144.4 21.3218C144.42 21.2311 144.43 21.1209 144.43 20.9947Z" fill="white"/>
<path d="M156.951 23.8739H155.298L155.211 22.5285H155.159C154.631 23.5522 153.732 24.064 152.468 24.064C151.458 24.064 150.617 23.6677 149.95 22.8751C149.284 22.0824 148.951 21.0534 148.951 19.7898C148.951 18.4337 149.312 17.3354 150.037 16.4965C150.74 15.7145 151.6 15.3235 152.624 15.3235C153.749 15.3235 154.537 15.7021 154.985 16.461H155.02V11.6517H156.885V21.6168C156.885 22.4325 156.907 23.1843 156.951 23.8739ZM155.02 20.3407V18.9438C155.02 18.7021 155.003 18.5066 154.969 18.3573C154.864 17.9094 154.638 17.5327 154.295 17.2287C153.948 16.9248 153.531 16.772 153.049 16.772C152.354 16.772 151.81 17.0475 151.41 17.6002C151.013 18.1529 150.812 18.8585 150.812 19.7204C150.812 20.5486 151.003 21.2204 151.385 21.7376C151.788 22.2886 152.332 22.564 153.013 22.564C153.625 22.564 154.114 22.3348 154.485 21.8745C154.845 21.4497 155.02 20.9379 155.02 20.3407Z" fill="white"/>
<path d="M172.885 19.6156C172.885 20.9041 172.517 21.9598 171.781 22.788C171.01 23.6393 169.989 24.0641 168.711 24.0641C167.483 24.0641 166.503 23.6571 165.771 22.8395C165.042 22.0238 164.677 20.9947 164.677 19.7542C164.677 18.4568 165.052 17.3923 165.806 16.5658C166.56 15.7394 167.573 15.3253 168.852 15.3253C170.08 15.3253 171.07 15.7323 171.817 16.5481C172.528 17.3407 172.885 18.3644 172.885 19.6156ZM170.955 19.676C170.955 18.9029 170.788 18.24 170.455 17.6873C170.062 17.019 169.508 16.6849 168.782 16.6849C168.036 16.6849 167.467 17.019 167.074 17.6873C166.74 18.24 166.574 18.9136 166.574 19.7098C166.574 20.4829 166.741 21.1458 167.074 21.6985C167.477 22.3668 168.039 22.7009 168.764 22.7009C169.476 22.7009 170.036 22.3614 170.437 21.6808C170.78 21.1174 170.955 20.4491 170.955 19.676Z" fill="white"/>
<path d="M182.903 23.8739H181.042V19.0753C181.042 17.5966 180.48 16.8573 179.351 16.8573C178.798 16.8573 178.352 17.0599 178.007 17.4669C177.662 17.8739 177.49 18.3537 177.49 18.9029V23.8721H175.625V17.8899C175.625 17.1541 175.604 16.3561 175.559 15.4923H177.195L177.282 16.8022H177.333C177.552 16.3952 177.876 16.0593 178.299 15.7909C178.805 15.4781 179.369 15.3199 179.989 15.3199C180.77 15.3199 181.421 15.5723 181.938 16.0788C182.583 16.6991 182.903 17.625 182.903 18.8549V23.8739Z" fill="white"/>
<path d="M195.442 16.8911H193.39V20.961C193.39 21.9953 193.755 22.5125 194.477 22.5125C194.811 22.5125 195.088 22.4841 195.307 22.4254L195.355 23.8383C194.987 23.977 194.503 24.0463 193.908 24.0463C193.172 24.0463 192.599 23.8223 192.185 23.3745C191.769 22.9266 191.563 22.173 191.563 21.1156V16.8911H190.338V15.4959H191.563V13.9604L193.389 13.4094V15.4941H195.44V16.8911H195.442Z" fill="white"/>
<path d="M205.305 23.8739H203.44V19.1109C203.44 17.6091 202.878 16.8573 201.753 16.8573C200.889 16.8573 200.299 17.2927 199.975 18.1636C199.92 18.3466 199.888 18.5706 199.888 18.8336V23.8721H198.027V11.6517H199.888V16.7009H199.924C200.51 15.7821 201.351 15.3235 202.441 15.3235C203.212 15.3235 203.851 15.5759 204.357 16.0824C204.988 16.7133 205.305 17.6517 205.305 18.8922V23.8739Z" fill="white"/>
<path d="M215.479 19.2886C215.479 19.6227 215.454 19.9035 215.41 20.1328H209.822C209.847 20.961 210.114 21.5919 210.631 22.0291C211.104 22.4201 211.714 22.6156 212.46 22.6156C213.287 22.6156 214.041 22.4841 214.72 22.2193L215.012 23.5131C214.217 23.8579 213.282 24.0303 212.199 24.0303C210.901 24.0303 209.879 23.6482 209.14 22.884C208.396 22.1197 208.028 21.0943 208.028 19.8075C208.028 18.5439 208.372 17.4918 209.063 16.6529C209.785 15.7572 210.761 15.3093 211.993 15.3093C213.198 15.3093 214.114 15.7572 214.732 16.6529C215.232 17.3638 215.479 18.2436 215.479 19.2886ZM213.701 18.807C213.716 18.2542 213.593 17.7779 213.34 17.3763C213.017 16.8591 212.524 16.5996 211.858 16.5996C211.25 16.5996 210.754 16.852 210.375 17.3585C210.066 17.7619 209.883 18.2436 209.822 18.807H213.701Z" fill="white"/>
</g>
<defs>
<clipPath id="clip0_51:501">
<rect width="240" height="71.09" fill="white"/>
</clipPath>
</defs>
</svg>
