<svg width="29" height="29" viewBox="0 0 29 29" fill="none" xmlns="http://www.w3.org/2000/svg">
<path d="M25.6029 0H3.39714C1.52457 0 0 1.334 0 2.987V22.591C0 24.244 1.52457 25.578 3.39714 25.578H22.1891L21.3109 22.8955L23.432 24.621L25.4371 26.245L29 29V2.987C29 1.334 27.4754 0 25.6029 0ZM19.2063 18.937C19.2063 18.937 18.6097 18.3135 18.1126 17.7625C20.2834 17.226 21.112 16.037 21.112 16.037C20.4326 16.4285 19.7863 16.704 19.2063 16.8925C18.3777 17.197 17.5823 17.4 16.8034 17.516C15.2126 17.777 13.7543 17.7045 12.5114 17.5015C11.5669 17.342 10.7549 17.11 10.0754 16.878C9.69429 16.7475 9.28 16.588 8.86571 16.385C8.816 16.356 8.76629 16.3415 8.71657 16.3125C8.68343 16.298 8.66686 16.2835 8.65029 16.269C8.352 16.124 8.18629 16.0225 8.18629 16.0225C8.18629 16.0225 8.98171 17.1825 11.0863 17.7335C10.5891 18.2845 9.976 18.937 9.976 18.937C6.31371 18.8355 4.92171 16.733 4.92171 16.733C4.92171 12.064 7.308 8.2795 7.308 8.2795C9.69429 6.7135 11.9646 6.757 11.9646 6.757L12.1303 6.931C9.14743 7.685 7.772 8.8305 7.772 8.8305C7.772 8.8305 8.13657 8.6565 8.74971 8.41C10.5229 7.7285 11.9314 7.54 12.5114 7.4965C12.6109 7.482 12.6937 7.4675 12.7931 7.4675C13.804 7.3515 14.9474 7.3225 16.1406 7.4385C17.7149 7.598 19.4051 8.004 21.1286 8.8305C21.1286 8.8305 19.8194 7.743 17.0023 6.989L17.2343 6.757C17.2343 6.757 19.5046 6.7135 21.8909 8.2795C21.8909 8.2795 24.2771 12.064 24.2771 16.733C24.2771 16.733 22.8686 18.8355 19.2063 18.937ZM11.5006 12.1655C10.556 12.1655 9.81029 12.8905 9.81029 13.775C9.81029 14.6595 10.5726 15.3845 11.5006 15.3845C12.4451 15.3845 13.1909 14.6595 13.1909 13.775C13.2074 12.8905 12.4451 12.1655 11.5006 12.1655ZM17.5491 12.1655C16.6046 12.1655 15.8589 12.8905 15.8589 13.775C15.8589 14.6595 16.6211 15.3845 17.5491 15.3845C18.4937 15.3845 19.2394 14.6595 19.2394 13.775C19.2394 12.8905 18.4937 12.1655 17.5491 12.1655Z" fill="white"/>
</svg>
