<svg width="42" height="71" viewBox="0 0 42 71" fill="none" xmlns="http://www.w3.org/2000/svg">
<path opacity="0.6" d="M20.9964 27.2933L2 36.0892L20.9964 47.5155L39.9854 36.0892L20.9964 27.2933Z" fill="#010101"/>
<path opacity="0.45" d="M1.56974 35.8344L1.3168 36.2617L1.74229 36.5176L20.7391 47.9438L21.4968 48.3996V47.5154V4V2.17391L20.5665 3.74529L1.56974 35.8344Z" fill="white" stroke="black"/>
<path opacity="0.8" d="M21.4263 3.74537L20.496 2.17325V4V47.5154V48.3998L21.2538 47.9438L40.2426 36.5176L40.6678 36.2617L40.4151 35.8345L21.4263 3.74537Z" fill="white" stroke="black"/>
<path opacity="0.45" d="M20.4968 51.4623V65.4086L3.75039 41.3897L20.4968 51.4623Z" fill="white" stroke="black"/>
<path opacity="0.8" d="M20.7383 50.7511L20.496 50.8968V51.1796V66.9999V68.5908L21.4061 67.286L40.4101 40.0395L39.7424 39.3249L20.7383 50.7511Z" fill="white" stroke="black"/>
</svg>
