<svg width="29" height="29" viewBox="0 0 29 29" fill="none" xmlns="http://www.w3.org/2000/svg">
<path d="M6.04167 3.625H22.9583C23.5993 3.625 24.214 3.87961 24.6672 4.33283C25.1204 4.78604 25.375 5.40073 25.375 6.04167V22.9583C25.375 23.5993 25.1204 24.214 24.6672 24.6672C24.214 25.1204 23.5993 25.375 22.9583 25.375H6.04167C5.40073 25.375 4.78604 25.1204 4.33283 24.6672C3.87961 24.214 3.625 23.5993 3.625 22.9583V6.04167C3.625 5.40073 3.87961 4.78604 4.33283 4.33283C4.78604 3.87961 5.40073 3.625 6.04167 3.625ZM21.75 6.04167H18.7292C17.6075 6.04167 16.5318 6.48724 15.7387 7.28036C14.9456 8.07348 14.5 9.14919 14.5 10.2708V13.2917H12.0833V16.9167H14.5V25.375H18.125V16.9167H21.75V13.2917H18.125V10.875C18.125 10.5545 18.2523 10.2472 18.4789 10.0206C18.7055 9.79397 19.0129 9.66667 19.3333 9.66667H21.75V6.04167Z" fill="white"/>
</svg>
