<svg width="38" height="63" viewBox="0 0 38 63" fill="none" xmlns="http://www.w3.org/2000/svg">
<g clip-path="url(#clip0)">
<path d="M16.373 0.163632C15.7544 0.328263 15.4451 1.12398 15.775 1.72762C15.9812 2.08432 16.5586 2.16664 19.2187 2.24895C21.7757 2.33127 22.6831 2.46846 23.7347 2.93492C25.1782 3.566 25.8174 3.40137 25.8174 2.44102C25.8174 1.61787 25.0132 1.09654 22.8893 0.520332C21.1159 0.0264397 17.6722 -0.16563 16.373 0.163632Z" fill="black"/>
<path d="M11.5683 2.00196C8.61953 3.70315 5.09334 7.32502 5.23769 8.50488C5.27893 8.83414 5.4439 9.24571 5.62949 9.38291C5.89756 9.60241 6.28936 9.30059 7.48537 7.95611C9.15567 6.09029 10.661 4.82812 12.4138 3.84034C13.0324 3.48364 13.6717 3.07206 13.816 2.93487C14.1872 2.52329 14.1253 1.6727 13.6717 1.34344C13.1561 0.986738 13.383 0.931861 11.5683 2.00196Z" fill="black"/>
<path d="M27.6114 3.29165C26.8691 3.84042 27.199 4.74589 28.5806 5.95318C30.1272 7.29767 31.8593 9.52018 33.0347 11.6329C33.9008 13.1969 34.4163 13.4988 34.9112 12.703C35.1381 12.3463 35.1174 12.1268 34.8081 11.3586C33.4265 7.95619 28.6218 2.55081 27.6114 3.29165Z" fill="black"/>
<path d="M15.5069 4.91055C12.3932 6.03553 9.52686 8.31291 7.62973 11.2214C5.52639 14.4043 4.39224 18.1359 3.87672 23.4315C2.74256 35.3947 3.67051 47.3578 6.63992 58.7997C7.7947 63.2721 7.98029 63.6837 8.66078 63.574C8.99071 63.5191 9.23817 63.2996 9.27941 62.9978C9.32065 62.7234 8.97009 61.1594 8.51643 59.5405C6.04192 50.7602 4.80466 40.3885 5.05211 30.8399C5.36142 20.2761 6.35123 15.9682 9.52686 11.7702C12.1663 8.25804 15.3213 6.52942 19.1156 6.52942C22.9305 6.52942 26.1061 8.25804 28.725 11.7427C30.4778 14.1024 31.3026 15.8859 32.1274 19.0414C32.7667 21.5657 32.8492 24.09 32.5399 31.5258C32.2718 37.8916 32.9317 42.9677 34.7875 48.867C35.5711 51.309 36.0454 51.9401 36.6434 51.2815C37.0765 50.8151 37.0352 50.0742 36.4578 48.5926C35.7155 46.617 34.7257 42.2543 34.3545 39.2635C34.0864 37.0959 34.0452 35.6965 34.1895 31.663C34.437 24.5839 34.3751 21.7852 33.9833 19.7547C32.6017 12.8403 28.8899 7.57208 23.8584 5.29469C21.5695 4.27946 17.7959 4.08739 15.5069 4.91055Z" fill="black"/>
<path d="M16.1874 9.13601C13.7748 9.93172 10.4548 12.8128 10.5992 14.0475C10.6404 14.3493 10.8054 14.7335 10.991 14.8706C11.259 15.0902 11.6302 14.8432 12.7437 13.7457C14.9502 11.5506 17.6309 10.4805 20.0848 10.8372C21.1158 11.0018 21.2602 10.9469 21.4664 10.4531C21.7551 9.73965 21.7551 9.68478 21.3633 9.19088C20.9715 8.64211 17.8165 8.61468 16.1874 9.13601Z" fill="black"/>
<path d="M23.2811 10.3159C23.1986 10.3982 23.1367 10.7823 23.1367 11.1116C23.1367 11.578 23.4254 11.9622 24.2915 12.6207C26.5804 14.3493 28.8075 18.273 29.2405 21.2638C29.4261 22.526 30.0447 22.9924 30.6015 22.2516C30.9933 21.7577 30.9933 21.6479 30.684 20.3035C30.2922 18.52 29.488 16.4072 28.6013 14.7609C27.0753 12.0445 23.9409 9.41039 23.2811 10.3159Z" fill="black"/>
<path d="M3.17566 11.4134C2.28896 13.0871 1.21667 16.4072 0.742385 18.8492C0.123756 22.0869 0.103135 23.1845 0.659901 23.5686C1.19605 23.9527 1.89716 23.0473 1.89716 21.9497C1.89716 20.5229 2.92821 16.3249 3.87677 14.02C4.61913 12.1816 4.74285 11.6603 4.57788 11.2213C4.26857 10.453 3.64994 10.5353 3.17566 11.4134Z" fill="black"/>
<path d="M16.105 13.7731C14.4141 14.706 13.5686 15.5017 12.62 16.9011C10.8466 19.59 10.2486 22.8003 10.0012 30.8398C9.67125 42.5011 11.7333 54.7387 15.7751 65.1379C16.6824 67.4427 16.9298 67.8817 17.3423 67.8817C18.3527 67.8817 18.3527 67.1409 17.3216 64.5342C14.8677 58.3606 12.9706 50.5955 12.1045 43.1871C11.3828 37.1506 11.5065 26.2027 12.352 21.9223C12.9087 19.0138 14.4759 16.7364 16.5793 15.7212C17.9196 15.0627 20.3117 15.145 21.7758 15.8858C24.0028 17.0108 25.8587 19.9742 26.168 22.9101C26.2299 23.6235 26.168 26.3124 26.0237 28.9191C25.8175 32.6782 25.7968 34.4068 26.0031 37.2055C26.5186 44.8608 28.127 51.6656 30.8902 57.9216C31.8182 60.0343 32.1687 60.4459 32.7255 60.1715C33.3647 59.8422 33.241 59.0191 32.1893 56.6045C28.4776 48.0986 26.9722 38.6049 27.6734 28.3429C28.0033 23.7058 27.8383 21.9497 26.8485 19.2608C26.0855 17.2303 24.4565 15.145 22.7656 14.0749C21.7551 13.4164 21.2809 13.3066 19.425 13.2243C17.5278 13.142 17.1154 13.1969 16.105 13.7731Z" fill="black"/>
<path d="M35.2 15.2274C35.0144 15.4743 34.932 15.8859 34.9938 16.1328C35.7156 18.6023 36.1692 21.5656 36.2723 24.529C36.396 27.7667 36.5404 28.5076 37.0765 28.5076C37.6745 28.5076 37.9839 27.657 37.9839 25.9558C37.9632 20.8522 36.726 14.7883 35.7362 14.7883C35.6331 14.7883 35.3856 14.9804 35.2 15.2274Z" fill="black"/>
<path d="M8.9907 16.3798C7.93904 17.2852 6.94923 23.0747 6.80488 29.1661C6.74302 30.9496 6.80488 31.3612 7.1142 31.6355C7.36165 31.855 7.56786 31.855 7.81531 31.6355C8.104 31.3886 8.22773 30.6203 8.43394 27.7942C8.76387 23.0199 9.05257 20.9894 9.65058 19.0138C10.2486 17.0108 10.2486 16.8188 9.75368 16.4346C9.2794 16.1054 9.2794 16.1054 8.9907 16.3798Z" fill="black"/>
<path d="M18.9919 17.8339C18.4351 18.5748 18.7856 19.3431 19.7755 19.59C20.9715 19.8644 22.0025 20.907 22.518 22.3338C22.9511 23.5137 22.9717 23.8704 22.848 26.5319C22.7243 29.5502 22.8274 30.1538 23.5697 30.1538C24.1471 30.1538 24.3533 29.3307 24.4977 26.3947C24.642 23.3765 24.5183 22.471 23.5697 20.468C22.8892 19.0961 21.652 17.9711 20.291 17.5596C19.5074 17.34 19.3424 17.3675 18.9919 17.8339Z" fill="black"/>
<path d="M15.8162 18.9041C14.9914 19.6175 14.1253 21.4284 13.8779 23.0199C13.5686 24.968 13.1974 30.3459 13.2799 31.9374C13.3417 33.1172 13.4036 33.3093 13.816 33.3916C14.6615 33.5562 14.8883 33.0075 14.8883 30.7301C14.8883 29.5777 15.0326 27.3003 15.1976 25.6814C15.5069 22.6083 15.8987 21.2912 16.7236 20.6053C17.2597 20.1937 17.2803 19.0138 16.7854 18.6571C16.4967 18.4651 16.2493 18.52 15.8162 18.9041Z" fill="black"/>
<path d="M18.2908 21.8949C17.0535 22.5808 16.7855 24.0076 16.6205 31.3886C16.3524 41.7877 17.8371 50.9796 21.2808 60.1989C23.1573 65.2476 23.9203 66.7842 24.5596 66.7842C25.5494 66.7842 25.5494 66.0433 24.4977 63.7385C22.415 59.1014 20.5179 53.1747 19.5487 48.2358C18.4558 42.5286 18.2908 40.6353 18.3114 33.1721C18.3114 25.9557 18.4764 24.0351 19.0538 23.8979C19.6105 23.7607 19.8168 24.6387 19.5899 26.4496C19.3218 28.8368 19.3218 37.5897 19.6105 40.3061C20.2085 45.9584 21.1984 50.7601 22.7449 55.6442C23.776 58.8819 25.405 62.9702 26.3742 64.644C26.931 65.6592 27.5496 65.8238 27.8589 65.0556C28.0858 64.4793 28.1064 64.5617 26.4361 60.7477C23.446 53.943 21.5695 45.8761 21.0334 37.4525C20.8478 34.4342 20.8478 32.5959 21.0746 28.7545C21.3633 23.2119 21.3015 22.8003 19.9405 22.0321C19.1569 21.593 18.8888 21.593 18.2908 21.8949Z" fill="black"/>
<path d="M29.8798 25.0777C29.4467 25.6539 29.2199 28.974 29.2611 34.2696C29.3024 39.7024 29.4261 40.4432 30.2716 40.4432H30.8696L30.7871 35.6415C30.7458 32.7605 30.8283 29.7422 30.9727 28.1234C31.2201 25.5716 31.2201 25.3795 30.8696 25.0228C30.3747 24.5564 30.2509 24.5838 29.8798 25.0777Z" fill="black"/>
<path d="M0.371177 26.2027C-0.123726 26.8338 -0.123726 38.6872 0.371177 39.3183C0.742355 39.8396 0.783597 39.8396 1.29912 39.4829C1.6703 39.2085 1.69092 38.8244 1.69092 32.7605C1.69092 26.6966 1.6703 26.3125 1.29912 26.0381C0.783597 25.6814 0.742355 25.6814 0.371177 26.2027Z" fill="black"/>
<path d="M36.4785 30.8947C36.2105 31.2239 36.3136 41.2664 36.5816 41.6231C36.9528 42.117 37.5302 42.0072 37.7777 41.431C38.087 40.6353 38.0457 31.4434 37.7364 31.0318C37.4683 30.6751 36.7054 30.5928 36.4785 30.8947Z" fill="black"/>
<path d="M22.7037 32.9251C22.2912 33.9952 23.013 42.556 23.8584 46.5072C24.1678 47.934 24.5183 48.373 25.0751 48.0986C25.57 47.8517 25.6318 47.1931 25.3225 45.5743C24.807 42.9402 24.3946 39.2085 24.2502 36.0531C24.1678 34.3794 24.0234 32.8703 23.8997 32.6782C23.5904 32.1569 22.9717 32.2941 22.7037 32.9251Z" fill="black"/>
<path d="M6.84611 34.4068C6.66052 34.6812 6.6399 35.5318 6.74301 37.4799C6.90797 40.5805 7.56784 47.1108 7.87716 48.5925C8.12461 49.7724 8.78448 50.2114 9.27938 49.5529C9.54746 49.1687 9.54746 48.8669 9.23814 46.6993C8.702 42.8853 8.51641 40.9372 8.37206 37.6995C8.28958 36.0257 8.14523 34.5166 8.0215 34.3245C7.75343 33.8855 7.15542 33.9129 6.84611 34.4068Z" fill="black"/>
<path d="M13.5686 36.0806C13.1768 36.5745 13.2181 37.3976 13.7748 42.803C14.4759 49.5529 15.2389 52.1321 16.2287 51.1717C16.5999 50.815 16.5999 50.7053 16.0638 47.4675C15.7544 45.6566 15.3626 42.4463 15.1771 40.361C14.9915 38.3031 14.7853 36.4098 14.7028 36.1903C14.4553 35.5867 13.9604 35.5318 13.5686 36.0806Z" fill="black"/>
<path d="M0.268127 42.309C-0.206155 43.0773 0.433095 48.6473 1.38166 51.9948C2.08277 54.5192 2.41271 55.1228 3.03134 55.1228C3.75307 55.1228 3.89742 54.1076 3.38189 52.7357C2.61892 50.7875 2.08277 48.0711 1.83532 45.0529C1.58787 42.1719 1.56725 42.0895 1.05172 42.0072C0.76303 41.9523 0.412474 42.117 0.268127 42.309Z" fill="black"/>
<path d="M30.2922 42.9401C30.2097 43.0499 30.1478 43.4066 30.1478 43.7633C30.1478 44.998 31.6325 50.4034 32.7873 53.3393C33.7771 55.8911 34.0452 56.3575 34.4576 56.3575C35.4887 56.3575 35.4268 55.6716 34.1895 52.3515C33.5503 50.6229 32.6842 47.7967 32.2512 46.0681C31.5501 43.2145 31.4263 42.9127 30.952 42.8304C30.684 42.7755 30.3747 42.8304 30.2922 42.9401Z" fill="black"/>
<path d="M25.0545 50.623C24.8689 51.2541 25.2813 52.7632 26.5598 56.2479C27.8795 59.8698 29.3024 62.9977 29.6735 63.1898C30.086 63.4093 30.5396 63.0801 30.6634 62.5038C30.7458 62.1746 30.4365 61.2142 29.756 59.7326C28.7868 57.5924 27.6321 54.4644 26.6629 51.4736C26.333 50.4035 26.168 50.184 25.7143 50.184C25.4256 50.184 25.1369 50.376 25.0545 50.623Z" fill="black"/>
<path d="M8.94955 52.1595C8.57837 52.6534 8.61961 53.0101 9.60942 56.8789C10.7436 61.324 12.4139 66.3726 12.8881 66.7568C13.3831 67.1683 13.9604 66.6196 13.9398 65.7964C13.9192 65.4397 13.4862 63.8757 12.95 62.3666C12.4139 60.8301 11.5478 57.8667 11.0116 55.7814C10.228 52.6808 9.95997 51.94 9.63004 51.8851C9.40321 51.8577 9.09389 51.9674 8.94955 52.1595Z" fill="black"/>
<path d="M16.0225 54.1076C15.8781 54.8485 16.9298 58.4155 18.6413 62.9977C20.0642 66.8117 20.8271 68.211 21.3427 67.9366C22.085 67.5525 21.9613 66.8665 20.4972 63.1075C19.693 61.0496 18.6826 58.196 18.2495 56.7692C17.2597 53.5314 17.2391 53.4766 16.6411 53.4766C16.2905 53.4766 16.1049 53.6686 16.0225 54.1076Z" fill="black"/>
</g>
<defs>
<clipPath id="clip0">
<rect width="38" height="63" fill="white"/>
</clipPath>
</defs>
</svg>
