<svg width="240" height="72" viewBox="0 0 240 72" fill="none" xmlns="http://www.w3.org/2000/svg">
<g clip-path="url(#clip0_51:546)">
<path fill-rule="evenodd" clip-rule="evenodd" d="M231.108 71.109H8.89216C3.99132 71.109 0 67.1014 0 62.2204V8.88863C0 3.98991 3.99132 0 8.89216 0H231.108C236.004 0 240 3.98991 240 8.88863V62.2204C240 67.1014 236.004 71.109 231.108 71.109Z" fill="black"/>
<path fill-rule="evenodd" clip-rule="evenodd" d="M231.108 1.42307C235.218 1.42307 238.583 4.77902 238.583 8.88863V62.2204C238.583 66.33 235.24 69.6859 231.108 69.6859H8.89216C4.78163 69.6859 1.41727 66.33 1.41727 62.2204V8.88863C1.41727 4.77902 4.75956 1.42307 8.89216 1.42307H231.108ZM231.108 0H8.89216C3.99132 0 0 4.00764 0 8.88863V62.2204C0 67.1191 3.99132 71.109 8.89216 71.109H231.108C236.004 71.109 240 67.1191 240 62.2204V8.88863C240 4.00764 236.004 0 231.108 0Z" fill="#A6A6A6"/>
<path d="M126.433 23.5227C124.83 23.5227 123.479 22.9597 122.411 21.8514C121.351 20.7741 120.759 19.289 120.786 17.7728C120.786 16.1547 121.333 14.7848 122.411 13.6987C123.475 12.5904 124.826 12.0273 126.428 12.0273C128.013 12.0273 129.364 12.5904 130.451 13.6987C131.528 14.8203 132.075 16.1901 132.075 17.7728C132.058 19.3954 131.51 20.7652 130.451 21.8469C129.387 22.9641 128.035 23.5227 126.433 23.5227ZM78.7447 23.5227C77.1773 23.5227 75.8174 22.9686 74.7048 21.8735C73.601 20.783 73.0403 19.4042 73.0403 17.7772C73.0403 16.1502 73.601 14.7715 74.7048 13.6809C75.7953 12.5859 77.1552 12.0318 78.7447 12.0318C79.5217 12.0318 80.2767 12.1869 81.0008 12.5017C81.7117 12.8076 82.29 13.2243 82.7183 13.7341L82.8243 13.8627L81.6278 15.0419L81.5041 14.8956C80.8286 14.0888 79.9235 13.6942 78.727 13.6942C77.6585 13.6942 76.7269 14.0755 75.9587 14.8291C75.186 15.5872 74.7931 16.5803 74.7931 17.7817C74.7931 18.9831 75.186 19.9761 75.9587 20.7342C76.7269 21.4879 77.6585 21.8691 78.727 21.8691C79.8661 21.8691 80.8242 21.4879 81.5704 20.7342C82.0119 20.2909 82.2856 19.6702 82.3828 18.8856H78.546V17.2275H84.0296L84.0517 17.3783C84.0914 17.6575 84.1312 17.9457 84.1312 18.2117C84.1312 19.7412 83.672 20.978 82.7625 21.8913C81.7293 22.973 80.3783 23.5227 78.7447 23.5227ZM142.151 23.2877H140.46L135.281 14.9666L135.325 16.465V23.2833H133.634V12.2667H135.563L135.616 12.351L140.486 20.1889L140.442 18.6949V12.2667H142.151V23.2877ZM113.726 23.2877H112.013V13.9248H109.041V12.2667H116.693V13.9248H113.722V23.2877H113.726ZM107.646 23.2877H105.938V12.2667H107.646V23.2877ZM98.0433 23.2877H96.3347V13.9248H93.3633V12.2667H101.015V13.9248H98.0433V23.2877ZM92.2815 23.27H85.7294V12.2667H92.2815V13.9248H87.4425V16.9482H91.8091V18.5885H87.4425V21.612H92.2815V23.27ZM123.664 20.712C124.428 21.479 125.355 21.8647 126.433 21.8647C127.541 21.8647 128.446 21.4879 129.201 20.712C129.952 19.9584 130.331 18.9698 130.331 17.7772C130.331 16.5847 129.952 15.5917 129.206 14.8424C128.442 14.0755 127.51 13.6898 126.437 13.6898C125.329 13.6898 124.424 14.0666 123.673 14.8424C122.923 15.5961 122.543 16.5847 122.543 17.7772C122.543 18.9698 122.918 19.9628 123.664 20.712Z" fill="white"/>
<path fill-rule="evenodd" clip-rule="evenodd" d="M120.627 38.6755C116.455 38.6755 113.073 41.8541 113.073 46.2386C113.073 50.5831 116.477 53.8016 120.627 53.8016C124.799 53.8016 128.181 50.6009 128.181 46.2386C128.181 41.8541 124.799 38.6755 120.627 38.6755ZM120.627 50.8048C118.344 50.8048 116.38 48.9074 116.38 46.2208C116.38 43.4944 118.349 41.6369 120.627 41.6369C122.91 41.6369 124.874 43.4944 124.874 46.2208C124.879 48.9251 122.91 50.8048 120.627 50.8048ZM104.145 38.6755C99.9727 38.6755 96.5907 41.8541 96.5907 46.2386C96.5907 50.5831 99.9948 53.8016 104.145 53.8016C108.317 53.8016 111.699 50.6009 111.699 46.2386C111.699 41.8541 108.313 38.6755 104.145 38.6755ZM104.145 50.8048C101.862 50.8048 99.8977 48.9074 99.8977 46.2208C99.8977 43.4944 101.867 41.6369 104.145 41.6369C106.428 41.6369 108.392 43.4944 108.392 46.2208C108.392 48.9251 106.428 50.8048 104.145 50.8048ZM84.5329 40.9852V44.186H92.1843C91.9503 45.9814 91.3587 47.307 90.4536 48.2158C89.3321 49.3418 87.6014 50.5654 84.5505 50.5654C79.8483 50.5654 76.1705 46.7528 76.1705 42.0314C76.1705 37.31 79.8483 33.4975 84.5505 33.4975C87.0892 33.4975 88.9392 34.5038 90.3123 35.7894L92.5729 33.5196C90.6655 31.6843 88.1268 30.2789 84.5682 30.2789C78.1176 30.2789 72.7046 35.5545 72.7046 42.0137C72.7046 48.4906 78.1132 53.7484 84.5682 53.7484C88.0517 53.7484 90.6655 52.6047 92.7318 50.4501C94.8379 48.3355 95.5046 45.3519 95.5046 42.9447C95.5046 42.1955 95.4472 41.5216 95.328 40.9497H84.5284C84.5329 40.9453 84.5329 40.9852 84.5329 40.9852ZM164.752 43.4767C164.121 41.7787 162.213 38.6577 158.302 38.6577C154.425 38.6577 151.202 41.7211 151.202 46.2208C151.202 50.4679 154.39 53.7839 158.677 53.7839C162.121 53.7839 164.125 51.6693 164.951 50.428L162.395 48.7079C161.547 49.9713 160.368 50.8004 158.695 50.8004C157.004 50.8004 155.82 50.029 155.034 48.5084L165.105 44.319C165.105 44.3234 164.752 43.4767 164.752 43.4767ZM154.482 46.0036C154.403 43.0821 156.743 41.597 158.416 41.597C159.737 41.597 160.836 42.2487 161.211 43.1974L154.482 46.0036ZM146.301 53.3317H149.608V31.1124H146.301V53.3317ZM140.871 40.3557H140.751C140.005 39.4646 138.588 38.6577 136.778 38.6577C133.02 38.6577 129.559 41.9782 129.559 46.243C129.559 50.49 133.003 53.7706 136.778 53.7706C138.566 53.7706 140.005 52.9593 140.751 52.0505H140.871V53.1367C140.871 56.0227 139.334 57.5788 136.857 57.5788C134.831 57.5788 133.572 56.1158 133.06 54.8922L130.186 56.0981C131.011 58.093 133.215 60.5623 136.853 60.5623C140.729 60.5623 144.014 58.2703 144.014 52.68V39.1099H140.888V40.3557C140.893 40.3557 140.871 40.3557 140.871 40.3557ZM137.073 50.8048C134.791 50.8048 132.883 48.8896 132.883 46.243C132.883 43.5742 134.791 41.6413 137.073 41.6413C139.334 41.6413 141.087 43.5963 141.087 46.243C141.109 48.8896 139.338 50.8048 137.073 50.8048ZM180.236 31.1124H172.329V53.3317H175.636V44.9175H180.241C183.901 44.9175 187.499 42.2531 187.499 38.0238C187.499 33.7945 183.914 31.1124 180.236 31.1124ZM180.333 41.8142H175.631V34.189H180.333C182.81 34.189 184.21 36.2416 184.21 38.0016C184.21 39.7439 182.793 41.8142 180.333 41.8142ZM200.754 38.6356C198.352 38.6356 195.875 39.704 194.85 42.0314L197.782 43.255C198.414 42.0314 199.57 41.6147 200.793 41.6147C202.506 41.6147 204.237 42.6432 204.277 44.4786V44.7135C203.685 44.3766 202.387 43.8623 200.833 43.8623C197.667 43.8623 194.458 45.6002 194.458 48.8586C194.458 51.8422 197.054 53.7573 199.946 53.7573C202.166 53.7573 203.389 52.751 204.153 51.585H204.272V53.3051H207.46V44.7933C207.46 40.83 204.529 38.6356 200.754 38.6356ZM200.339 50.8048C199.257 50.8048 197.742 50.2728 197.742 48.9074C197.742 47.1873 199.632 46.5356 201.244 46.5356C202.701 46.5356 203.389 46.8503 204.255 47.2848C204.016 49.2798 202.339 50.787 200.339 50.8048ZM219.09 39.1099L215.293 48.7478H215.174L211.24 39.1099H207.681L213.584 52.5825L210.22 60.0702H213.664L222.746 39.1099H219.09ZM189.323 53.3317H192.63V31.1124H189.323V53.3317Z" fill="white"/>
<path fill-rule="evenodd" clip-rule="evenodd" d="M18.473 13.3929C17.9609 13.947 17.665 14.7938 17.665 15.9021V55.2115C17.665 56.3199 17.9609 57.1666 18.4907 57.6986L18.6275 57.8183L40.5621 35.794V35.3019L18.6099 13.2732L18.473 13.3929Z" fill="url(#paint0_linear_51:546)"/>
<path fill-rule="evenodd" clip-rule="evenodd" d="M47.8604 43.1575L40.5444 35.8117V35.2974L47.8604 27.9515L48.0193 28.0491L56.6731 32.9877C59.15 34.3886 59.15 36.7027 56.6731 38.1214L48.0193 43.06L47.8604 43.1575Z" fill="url(#paint1_linear_51:546)"/>
<path fill-rule="evenodd" clip-rule="evenodd" d="M48.0195 43.0599L40.5446 35.5544L18.4731 57.7162C19.2811 58.5851 20.6366 58.6826 22.151 57.8359L48.0195 43.0599Z" fill="url(#paint2_linear_51:546)"/>
<path fill-rule="evenodd" clip-rule="evenodd" d="M48.0195 28.049L22.151 13.2952C20.6366 12.4263 19.2767 12.546 18.4731 13.4149L40.5446 35.5545L48.0195 28.049Z" fill="url(#paint3_linear_51:546)"/>
<path opacity="0.2" fill-rule="evenodd" clip-rule="evenodd" d="M47.8604 42.9004L22.1685 57.5566C20.7335 58.3856 19.4531 58.328 18.6275 57.5743L18.4906 57.7118L18.6275 57.8314C19.4531 58.5807 20.7335 58.6427 22.1685 57.8137L48.037 43.06L47.8604 42.9004Z" fill="black"/>
<path opacity="0.12" fill-rule="evenodd" clip-rule="evenodd" d="M56.6731 37.8642L47.8384 42.9003L47.9973 43.0599L56.6511 38.1213C57.8917 37.412 58.501 36.481 58.501 35.5544C58.426 36.4056 57.7946 37.2125 56.6731 37.8642Z" fill="black"/>
<path opacity="0.25" fill-rule="evenodd" clip-rule="evenodd" d="M22.1509 13.5523L56.6731 33.2447C57.7946 33.8787 58.4259 34.7077 58.5231 35.5544C58.5231 34.6279 57.9138 33.6969 56.6731 32.9876L22.1509 13.2952C19.6739 11.8721 17.665 13.0602 17.665 15.9019V16.159C17.665 13.3129 19.6739 12.147 22.1509 13.5523Z" fill="white"/>
</g>
<defs>
<linearGradient id="paint0_linear_51:546" x1="38.5946" y1="15.478" x2="3.44028" y2="24.8068" gradientUnits="userSpaceOnUse">
<stop stop-color="#00A0FF"/>
<stop offset="0.00657" stop-color="#00A1FF"/>
<stop offset="0.2601" stop-color="#00BEFF"/>
<stop offset="0.5122" stop-color="#00D2FF"/>
<stop offset="0.7604" stop-color="#00DFFF"/>
<stop offset="1" stop-color="#00E3FF"/>
</linearGradient>
<linearGradient id="paint1_linear_51:546" x1="59.9032" y1="35.5546" x2="17.0629" y2="35.5546" gradientUnits="userSpaceOnUse">
<stop stop-color="#FFE000"/>
<stop offset="0.4087" stop-color="#FFBD00"/>
<stop offset="0.7754" stop-color="#FFA500"/>
<stop offset="1" stop-color="#FF9C00"/>
</linearGradient>
<linearGradient id="paint2_linear_51:546" x1="43.9549" y1="39.6385" x2="15.5779" y2="87.2049" gradientUnits="userSpaceOnUse">
<stop stop-color="#FF3A44"/>
<stop offset="1" stop-color="#C31162"/>
</linearGradient>
<linearGradient id="paint3_linear_51:546" x1="12.9153" y1="0.317823" x2="25.5755" y2="21.5618" gradientUnits="userSpaceOnUse">
<stop stop-color="#32A071"/>
<stop offset="0.0685" stop-color="#2DA771"/>
<stop offset="0.4762" stop-color="#15CF74"/>
<stop offset="0.8009" stop-color="#06E775"/>
<stop offset="1" stop-color="#00F076"/>
</linearGradient>
<clipPath id="clip0_51:546">
<rect width="240" height="71.109" fill="white"/>
</clipPath>
</defs>
</svg>
