<svg width="29" height="29" viewBox="0 0 29 29" fill="none" xmlns="http://www.w3.org/2000/svg">
<path d="M2.08945 1.64258C1.06425 1.77285 0.203317 2.63945 0.0560515 3.69297C-0.0175813 4.16309 -0.0119173 5.42051 0.0560515 5.91895C0.169333 6.71758 0.684762 7.41992 1.40976 7.77676L1.78359 7.95801H14.4994H27.2152L27.5891 7.77676C28.3141 7.41992 28.8295 6.71758 28.9428 5.91895C29.0107 5.43184 29.0107 4.24238 28.9484 3.72695C28.8068 2.62813 27.9572 1.77852 26.8584 1.63691C26.4053 1.58027 2.54824 1.58027 2.08945 1.64258Z" fill="black"/>
<path d="M1.82949 11.3565C1.3707 11.4811 1.08184 11.651 0.736328 12.0022C0.158594 12.5743 0 13.1124 0 14.4717C0 15.395 0.0736328 15.8934 0.260547 16.2899C0.447461 16.6864 0.87793 17.1565 1.2291 17.3491C1.86914 17.6946 1.01387 17.6719 14.5 17.6719C27.9861 17.6719 27.1309 17.6946 27.7709 17.3491C28.1221 17.1565 28.5525 16.6864 28.7395 16.2899C28.9264 15.8934 29 15.395 29 14.4717C29 13.5485 28.9264 13.0501 28.7395 12.6536C28.5525 12.2571 28.1221 11.787 27.7709 11.5944C27.1309 11.2489 27.9918 11.2715 14.4717 11.2772C4.01582 11.2772 2.07871 11.2885 1.82949 11.3565Z" fill="black"/>
<path d="M1.69863 21.0647C1.28515 21.195 0.990622 21.3876 0.662106 21.7444C0.322262 22.1069 0.135348 22.5091 0.0560515 23.0245C-0.0119173 23.5173 -0.0175813 24.7747 0.0560515 25.2505C0.208981 26.3153 1.01894 27.1366 2.08379 27.3009C2.33867 27.3405 6.49609 27.3575 14.7543 27.3462L27.0453 27.3292L27.3795 27.2046C28.0422 26.9553 28.5689 26.4173 28.8295 25.7262C28.9314 25.46 28.9598 25.2448 28.9824 24.4971C29.0334 22.9509 28.8861 22.3221 28.3141 21.7218C27.9742 21.3649 27.6797 21.178 27.2492 21.0477C26.966 20.9684 25.7709 20.9571 14.4768 20.9628C2.71816 20.9628 1.99316 20.9684 1.69863 21.0647Z" fill="black"/>
</svg>
