<svg width="38" height="63" viewBox="0 0 38 63" fill="none" xmlns="http://www.w3.org/2000/svg">
<path d="M3.02069 37.3069L15.5323 58.0465C15.5879 57.8979 15.6508 57.7572 15.7202 57.6256C20.761 49.2678 25.8036 40.9131 30.848 32.5614C31.0269 32.2888 31.1235 31.8987 31.1118 31.4965C31.1005 29.0785 31.1118 26.6604 31.1118 24.1842C30.9953 24.2679 30.8901 24.3353 30.7891 24.4167C29.9474 25.098 29.0763 25.6653 28.1378 25.8466C27.9195 25.8789 27.73 26.109 27.6454 26.4442C26.843 28.8157 25.5917 30.0364 23.9687 29.9945C22.2657 29.9527 21.0074 28.5786 20.2681 26.0233C19.3886 22.9775 20.0773 19.2225 21.8112 17.4066C23.5659 15.5718 25.8694 16.1776 27.1951 18.8226C27.4378 19.3178 27.6244 19.841 27.4855 20.5245C27.4023 20.9886 27.1816 21.3497 26.9005 21.4817C26.6195 21.6137 26.3173 21.4982 26.0996 21.1756C25.8807 20.8617 25.7026 20.4641 25.4753 20.1665C24.7066 19.1667 23.8635 18.9737 22.9825 19.7015C22.0539 20.4734 21.6078 21.7661 21.6765 23.4797C21.7425 25.077 22.2741 26.1861 23.1509 26.7999C24.0675 27.4475 25.1322 26.9979 25.7503 25.7025C24.9773 25.4049 24.2731 24.8654 23.7457 23.9029C23.3676 23.2009 23.0474 22.4191 22.7932 21.5778C22.5982 20.95 22.8465 20.1828 23.214 19.8712C23.5953 19.543 24.0645 19.7434 24.3026 20.3362C24.635 21.2151 24.9787 22.0382 25.5651 22.5102C26.4489 23.2077 27.3621 23.1309 28.2725 22.7938C30.026 22.1591 31.4597 20.6013 32.7025 18.5389C34.0745 16.2674 35.0606 13.6261 35.3679 10.4012C35.5572 8.41561 35.3903 6.52998 34.3382 5.22562C33.4839 4.16539 32.4963 4.11656 31.4863 4.43045C30.3025 4.82721 29.1855 5.64858 28.2136 6.83689C28.0735 7.01067 27.9273 7.17061 27.7759 7.31585C27.3767 7.72951 26.8515 7.54275 26.5899 6.89412C26.3282 6.2455 26.4248 5.36968 26.808 4.91639C27.3379 4.24916 27.8968 3.64766 28.4801 3.11679C29.8829 1.89148 31.3755 1.15211 32.9915 1.38229C35.365 1.72872 37.0709 4.72108 37.1831 8.67369C37.2785 12.045 36.5504 14.9723 35.4436 17.6903C34.7819 19.2905 33.9876 20.7283 33.0841 21.9614C32.9691 22.159 32.9039 22.4217 32.9017 22.6962C32.8905 25.911 32.8905 29.1273 32.9017 32.3452C32.916 33.0068 32.7575 33.6465 32.4669 34.1006C27.0539 43.0506 21.6447 52.0044 16.2393 60.9621C15.6782 61.8921 15.2377 61.8921 14.6766 60.9621C10.1951 53.5389 5.715 46.1072 1.23633 38.667C0.663989 37.7184 0.665392 36.9953 1.24335 36.0351C6.63851 27.0944 12.0346 18.1468 17.4317 9.19218C17.702 8.70563 18.0862 8.43684 18.4852 8.45514C21.2318 8.47684 23.979 8.47684 26.7266 8.45514C27.1265 8.43267 27.5127 8.69804 27.7857 9.18288C29.1142 11.4196 30.451 13.6354 31.7879 15.8651C32.0794 16.3261 32.1443 17.0567 31.9452 17.6372C31.7462 18.2178 31.3344 18.4995 30.9462 18.3204C30.7629 18.2007 30.5977 18.0158 30.4623 17.7786C29.2559 15.807 28.0551 13.8245 26.8599 11.8311C26.7099 11.5555 26.4929 11.4068 26.2693 11.4266C23.8242 11.4266 21.3791 11.4266 18.9341 11.4475C18.7439 11.4563 18.5617 11.5756 18.4192 11.7846C13.3299 20.1967 8.24519 28.615 3.16518 37.0395C3.10767 37.1441 3.05436 37.2464 3.02069 37.3069Z" fill="black" stroke="black"/>
<path d="M11.574 31.2648V33.4903C11.574 35.2214 11.574 36.9524 11.574 38.6834C11.5673 39.4978 11.1824 40.1647 10.6929 40.2103C10.2033 40.2559 9.776 39.6645 9.71457 38.8565C9.70462 38.7129 9.70064 38.5683 9.70266 38.4237C9.70266 35.6244 9.70266 32.8251 9.70266 30.016C9.70266 28.7474 10.0599 28.1514 10.8147 28.1489C12.5253 28.1489 14.2388 28.1489 15.9464 28.1489C16.3662 28.1489 16.7011 28.3962 16.8783 29.0589C17.0406 29.6549 17.0167 30.2805 16.7294 30.7108C16.522 31.0156 16.261 31.2012 15.9851 31.24C14.672 31.292 13.359 31.2623 12.0444 31.2648H11.574Z" fill="black" stroke="black"/>
<path d="M19.1355 43.7787C19.1355 41.4046 19.1355 39.122 19.1355 36.8369C19.1298 36.4483 19.1724 36.0619 19.2606 35.7018C19.4443 35.0642 19.8718 34.727 20.2857 34.8932C20.7029 35.0394 21.0039 35.6446 21.0113 36.3522C21.0277 37.2796 21.0188 38.207 21.0188 39.1344C21.0188 41.0914 21.0188 43.0492 21.0188 45.0078C21.0188 46.316 20.6672 46.9095 19.8879 46.912C18.1744 46.912 16.4609 46.912 14.7475 46.912C14.3637 46.9509 14.0048 46.5956 13.843 46.0168C13.6855 45.5065 13.7191 44.8913 13.9295 44.4365C14.131 43.978 14.4618 43.7268 14.8026 43.7738C16.0944 43.7738 17.3862 43.7738 18.6765 43.7738L19.1355 43.7787Z" fill="black" stroke="black"/>
</svg>
