<svg width="26" height="26" viewBox="0 0 26 26" fill="none" xmlns="http://www.w3.org/2000/svg">
<path d="M18.8948 14.681C18.85 14.6362 18.7828 14.6362 18.7155 14.6586L18.5586 14.7259C17.7966 15.1069 16.9448 15.2862 16.0931 15.2862C16.0483 15.2862 16.0259 15.3086 16.0259 15.331C15.9362 15.7345 15.6 16.0259 15.1741 16.0259H13.4259V14.569H13.4483C13.5603 14.5914 13.65 14.5914 13.7621 14.6138C14.5017 14.7259 14.8603 15.0621 15.0172 15.219L15.0397 15.2414C15.0621 15.2638 15.1069 15.2638 15.1293 15.2414C15.1517 15.219 15.1741 15.1966 15.219 15.1741C15.4879 14.9948 16.1155 14.6138 16.1155 12.5966C16.1155 10.5345 14.5466 9.14483 14.3672 9.05517L13.4483 8.98793H13.4259V8.40517C13.6052 8.2931 13.7397 8.09138 13.7397 7.84483C13.7397 7.48621 13.4707 7.19483 13.1121 7.19483C12.7534 7.19483 12.4845 7.48621 12.4845 7.84483C12.4845 8.06897 12.5966 8.27069 12.7983 8.38276V8.87586L11.4759 8.74138C11.4086 8.74138 11.3638 8.80862 11.4086 8.85345C11.6328 9.21207 12.2379 10.3328 12.2828 12.0138C12.3276 13.5828 12.081 14.3224 11.969 14.5914C11.9466 14.6138 11.9466 14.6362 11.969 14.6586C11.9914 14.681 12.0138 14.681 12.0362 14.681C12.1931 14.6586 12.4621 14.6138 12.7983 14.5914V16.0483H11.3414C10.8707 16.0483 10.4672 15.6448 10.4672 15.1741V14.8155C10.4672 14.7707 10.4448 14.7483 10.4 14.7483H7.68793C7.66552 14.7483 7.62069 14.7707 7.62069 14.8155C7.62069 14.8828 7.62069 14.95 7.62069 15.0172C7.62069 16.0259 7.91207 16.9448 8.40517 17.7517C8.49483 17.8862 8.65172 17.9534 8.78621 17.8862L9.07759 17.7517C9.30172 17.6397 9.57069 17.6397 9.81724 17.7517L10.131 17.8862C10.3552 17.9983 10.6241 17.9983 10.8707 17.8862L11.1845 17.7517C11.431 17.6397 11.6776 17.6397 11.9241 17.7517L12.2379 17.8862C12.4845 17.9983 12.731 17.9983 12.9776 17.8862L13.2914 17.7517C13.5379 17.6397 13.7845 17.6397 14.031 17.7517L14.3448 17.8862C14.5914 17.9983 14.8379 17.9983 15.0845 17.8862L15.3983 17.7517C15.6448 17.6397 15.8914 17.6397 16.1379 17.7517L16.4517 17.8862C16.6534 17.9759 16.8776 17.8638 16.9897 17.6621C17.169 17.3707 17.3259 17.0345 17.4379 16.7207C17.6845 15.981 18.1328 15.2862 18.8276 14.95C18.8948 14.9276 18.9172 14.8603 18.9172 14.7931C18.9621 14.7707 18.9397 14.7034 18.8948 14.681ZM8.89828 14.1879H11.4534C11.4983 14.1879 11.5207 14.1655 11.5207 14.1207V11.3414C11.5207 11.319 11.4983 11.2966 11.4759 11.2741L10.2207 10.6914C10.1983 10.669 10.1534 10.6914 10.131 10.7362L8.83103 14.0759C8.80862 14.1431 8.85345 14.1879 8.89828 14.1879ZM13 0C5.82759 0 0 5.82759 0 13C0 20.1724 5.82759 26 13 26C20.1724 26 26 20.1724 26 13C26 5.82759 20.1724 0 13 0ZM12.9552 22.4586C7.77759 22.4586 3.58621 18.2672 3.58621 13.0672C3.58621 7.88966 7.77759 3.67586 12.9552 3.67586C18.1328 3.67586 22.3241 7.88966 22.3241 13.0672C22.3017 18.2672 18.1103 22.4586 12.9552 22.4586ZM18.7155 14.6586L18.5586 14.7259C17.7966 15.1069 16.9448 15.2862 16.0931 15.2862C16.0483 15.2862 16.0259 15.3086 16.0259 15.331C15.9362 15.7345 15.6 16.0259 15.1741 16.0259H13.4259V14.569H13.4483C13.5603 14.5914 13.65 14.5914 13.7621 14.6138C14.5017 14.7259 14.8603 15.0621 15.0172 15.219L15.0397 15.2414C15.0621 15.2638 15.1069 15.2638 15.1293 15.2414C15.1517 15.219 15.1741 15.1966 15.219 15.1741C15.4879 14.9948 16.1155 14.6138 16.1155 12.5966C16.1155 10.5345 14.5466 9.14483 14.3672 9.05517L13.4483 8.98793H13.4259V8.40517C13.6052 8.2931 13.7397 8.09138 13.7397 7.84483C13.7397 7.48621 13.4707 7.19483 13.1121 7.19483C12.7534 7.19483 12.4845 7.48621 12.4845 7.84483C12.4845 8.06897 12.5966 8.27069 12.7983 8.38276V8.87586L11.4759 8.74138C11.4086 8.74138 11.3638 8.80862 11.4086 8.85345C11.6328 9.21207 12.2379 10.3328 12.2828 12.0138C12.3276 13.5828 12.081 14.3224 11.969 14.5914C11.9466 14.6138 11.9466 14.6362 11.969 14.6586C11.9914 14.681 12.0138 14.681 12.0362 14.681C12.1931 14.6586 12.4621 14.6138 12.7983 14.5914V16.0483H11.3414C10.8707 16.0483 10.4672 15.6448 10.4672 15.1741V14.8155C10.4672 14.7707 10.4448 14.7483 10.4 14.7483H7.68793C7.66552 14.7483 7.62069 14.7707 7.62069 14.8155C7.62069 14.8828 7.62069 14.95 7.62069 15.0172C7.62069 16.0259 7.91207 16.9448 8.40517 17.7517C8.49483 17.8862 8.65172 17.9534 8.78621 17.8862L9.07759 17.7517C9.30172 17.6397 9.57069 17.6397 9.81724 17.7517L10.131 17.8862C10.3552 17.9983 10.6241 17.9983 10.8707 17.8862L11.1845 17.7517C11.431 17.6397 11.6776 17.6397 11.9241 17.7517L12.2379 17.8862C12.4845 17.9983 12.731 17.9983 12.9776 17.8862L13.2914 17.7517C13.5379 17.6397 13.7845 17.6397 14.031 17.7517L14.3448 17.8862C14.5914 17.9983 14.8379 17.9983 15.0845 17.8862L15.3983 17.7517C15.6448 17.6397 15.8914 17.6397 16.1379 17.7517L16.4517 17.8862C16.6534 17.9759 16.8776 17.8638 16.9897 17.6621C17.169 17.3707 17.3259 17.0345 17.4379 16.7207C17.6845 15.981 18.1328 15.2862 18.8276 14.95C18.8948 14.9276 18.9172 14.8603 18.9172 14.7931C18.9172 14.7483 18.8948 14.681 18.85 14.6586C18.85 14.6586 18.7828 14.6362 18.7155 14.6586ZM8.89828 14.1879H11.4534C11.4983 14.1879 11.5207 14.1655 11.5207 14.1207V11.3414C11.5207 11.319 11.4983 11.2966 11.4759 11.2741L10.2207 10.6914C10.1983 10.669 10.1534 10.6914 10.131 10.7362L8.83103 14.0759C8.80862 14.1431 8.85345 14.1879 8.89828 14.1879Z" fill="#3291E9"/>
<path d="M11.4759 11.2965L10.2207 10.7138C10.1983 10.6914 10.1535 10.7138 10.1311 10.7586L8.83107 14.0983C8.80866 14.1431 8.85349 14.1879 8.89831 14.1879H11.4535C11.4983 14.1879 11.5207 14.1655 11.5207 14.1207V11.3414C11.5207 11.319 11.4983 11.2965 11.4759 11.2965ZM18.8949 14.681C18.85 14.6362 18.7828 14.6362 18.7156 14.6586L18.5587 14.7259C17.7966 15.1069 16.9449 15.2862 16.0931 15.2862C16.0483 15.2862 16.0259 15.3086 16.0259 15.331C15.9362 15.7345 15.6 16.0259 15.1742 16.0259H13.4259V14.569H13.4483C13.5604 14.5914 13.65 14.5914 13.7621 14.6138C14.5018 14.7259 14.8604 15.0621 15.0173 15.219L15.0397 15.2414C15.0621 15.2638 15.1069 15.2638 15.1293 15.2414C15.1518 15.219 15.1742 15.1965 15.219 15.1741C15.488 14.9948 16.1156 14.6138 16.1156 12.5965C16.1156 10.5345 14.5466 9.14482 14.3673 9.05517L13.4483 8.98793H13.4259V8.40517C13.6052 8.2931 13.7397 8.09138 13.7397 7.84482C13.7397 7.4862 13.4707 7.19482 13.1121 7.19482C12.7535 7.19482 12.4845 7.4862 12.4845 7.84482C12.4845 8.06896 12.5966 8.27069 12.7983 8.38276V8.87586L11.4759 8.74138C11.4087 8.74138 11.3638 8.80862 11.4087 8.85345C11.6328 9.21207 12.238 10.3328 12.2828 12.0138C12.3276 13.5828 12.0811 14.3224 11.969 14.5914C11.9466 14.6138 11.9466 14.6362 11.969 14.6586C11.9914 14.681 12.0138 14.681 12.0362 14.681C12.1931 14.6586 12.4621 14.6138 12.7983 14.5914V16.0483H11.3414C10.8707 16.0483 10.4673 15.6448 10.4673 15.1741V14.8155C10.4673 14.7707 10.4449 14.7483 10.4 14.7483H7.68797C7.66555 14.7483 7.62073 14.7707 7.62073 14.8155C7.62073 14.8828 7.62073 14.95 7.62073 15.0172C7.62073 16.0259 7.91211 16.9448 8.40521 17.7517C8.49487 17.8862 8.65176 17.9534 8.78624 17.8862L9.07762 17.7517C9.30176 17.6397 9.57073 17.6397 9.81728 17.7517L10.1311 17.8862C10.3552 17.9983 10.6242 17.9983 10.8707 17.8862L11.1845 17.7517C11.4311 17.6397 11.6776 17.6397 11.9242 17.7517L12.238 17.8862C12.4845 17.9983 12.7311 17.9983 12.9776 17.8862L13.2914 17.7517C13.538 17.6397 13.7845 17.6397 14.0311 17.7517L14.3449 17.8862C14.5914 17.9983 14.838 17.9983 15.0845 17.8862L15.3983 17.7517C15.6449 17.6397 15.8914 17.6397 16.138 17.7517L16.4518 17.8862C16.6535 17.9759 16.8776 17.8638 16.9897 17.6621C17.169 17.3707 17.3259 17.0345 17.438 16.7207C17.6845 15.981 18.1328 15.2862 18.8276 14.95C18.8949 14.9276 18.9173 14.8603 18.9173 14.7931C18.9621 14.7707 18.9397 14.7034 18.8949 14.681Z" fill="#3291E9"/>
</svg>
