<svg width="47" height="47" viewBox="0 0 47 47" fill="none" xmlns="http://www.w3.org/2000/svg">
<g clip-path="url(#clip0)">
<path d="M5.875 24.5417H10.5417V29.2083H5.875V24.5417ZM24.5417 10.5417H29.2083V19.875H24.5417V10.5417ZM19.875 24.5417H29.2083V33.875H24.5417V29.2083H19.875V24.5417ZM33.875 24.5417H38.5417V29.2083H43.2083V24.5417H47.875V29.2083H43.2083V33.875H47.875V43.2083H43.2083V47.875H38.5417V43.2083H29.2083V47.875H24.5417V38.5417H33.875V33.875H38.5417V29.2083H33.875V24.5417ZM43.2083 43.2083V33.875H38.5417V43.2083H43.2083ZM33.875 5.875H47.875V19.875H33.875V5.875ZM38.5417 10.5417V15.2083H43.2083V10.5417H38.5417ZM5.875 5.875H19.875V19.875H5.875V5.875ZM10.5417 10.5417V15.2083H15.2083V10.5417H10.5417ZM5.875 33.875H19.875V47.875H5.875V33.875ZM10.5417 38.5417V43.2083H15.2083V38.5417H10.5417Z" fill="black"/>
</g>
<defs>
<clipPath id="clip0">
<rect width="47" height="47" fill="white"/>
</clipPath>
</defs>
</svg>
