<svg width="26" height="26" viewBox="0 0 26 26" fill="none" xmlns="http://www.w3.org/2000/svg">
<path d="M20.8 0H5.2C2.32812 0 0 2.32812 0 5.2V20.8C0 23.6719 2.32812 26 5.2 26H20.8C23.6719 26 26 23.6719 26 20.8V5.2C26 2.32812 23.6719 0 20.8 0Z" fill="#FEDA03"/>
<path d="M17.9405 12.9048C18.7595 12.692 19.4881 12.0794 19.4881 10.8477C19.4881 8.79718 17.747 8.31995 15.5159 8.31995H6.63V17.5541H10.37V14.4202H14.8066C15.4901 14.4202 15.8899 14.691 15.8899 15.3617V17.5541H19.63V15.2456C19.63 13.9881 18.9207 13.1949 17.9405 12.9048ZM14.871 11.9311H10.37V11.0283H14.871C15.3611 11.0283 15.6577 11.0928 15.6577 11.4797C15.6577 11.8666 15.3611 11.9311 14.871 11.9311Z" fill="black"/>
</svg>
