<svg width="38" height="63" viewBox="0 0 38 63" fill="none" xmlns="http://www.w3.org/2000/svg">
<path d="M17.3114 0.0711327C13.73 0.89233 11.3741 7.28341 12.5468 12.9961C12.6736 13.5852 12.7686 14.1029 12.7686 14.1743C12.7686 14.2457 12.42 14.5135 12.008 14.7992C11.036 15.424 9.37738 16.8879 8.72237 17.6912L8.21526 18.316L7.6976 17.9411C6.72565 17.2449 5.38393 17.1557 4.4965 17.7269C4.11617 17.9768 3.26044 18.9587 3.26044 19.1551C3.26044 19.2265 3.68302 20.2441 4.20069 21.4045L5.13038 23.511L4.71836 24.6C4.169 26.0282 3.53512 28.2775 3.29213 29.67L3.10197 30.7768H2.61599C1.89759 30.7768 1.13694 31.2232 0.735481 31.8837C0.0276482 33.0619 0.0382129 32.9013 0.00651887 39.8279C-0.0146105 43.7375 0.0170835 46.3796 0.0804715 46.7902C0.228377 47.7007 0.777739 48.7897 1.29541 49.1824C1.66517 49.4681 2.00324 49.5216 3.56681 49.5216H5.41563L6.36645 51.1997C6.89468 52.1102 7.6976 53.3241 8.15188 53.8954L8.96535 54.913V57.8943C8.96535 60.6257 8.98648 60.9113 9.20834 61.554C9.62036 62.7858 9.91617 62.9286 11.9446 62.875C13.5399 62.8215 13.73 62.7858 14.0047 62.4466C14.4379 61.8932 14.6808 61.0898 14.7442 59.9473L14.8076 58.9476L15.1351 59.0368C16.5402 59.4474 18.3256 59.5724 19.6251 59.376C20.3858 59.251 21.0725 59.1082 21.157 59.0547C21.2626 58.9833 21.3154 59.2332 21.3471 60.1258C21.3894 61.3755 21.569 61.9467 22.1078 62.6251C22.3719 62.9643 22.5409 63 24.2102 63C25.9428 63 26.0484 62.9821 26.3759 62.5894C26.9887 61.8396 27.0732 61.3576 27.1366 58.1442L27.1894 55.2522L27.9818 54.3238C29.7355 52.2351 31.5103 48.8075 32.4295 45.7191C33.6022 41.8273 34.067 36.918 33.6444 32.9548L33.5071 31.6516L34.0142 31.2232C34.5847 30.7233 35.2397 30.5091 35.6411 30.6697C36.0426 30.8483 35.9581 31.0446 35.4615 31.0625C34.2677 31.116 34.2043 33.776 35.3876 34.3651C35.7573 34.5615 35.8419 34.5437 36.0954 34.2402C36.2539 34.0438 36.4546 33.6332 36.5391 33.3119C36.7293 32.6335 36.7399 32.6335 37.2998 33.1155C37.6801 33.4368 37.7435 33.4547 37.8808 33.2226C38.1238 32.812 37.9548 32.2764 37.4371 31.8658C37.173 31.6516 36.9195 31.4909 36.8561 31.4909C36.8032 31.4909 36.7504 31.4017 36.7504 31.2946C36.7504 30.7947 36.3701 29.8485 36.0849 29.5808C35.6411 29.2059 34.7114 29.3665 33.9402 29.9557C33.6127 30.2056 33.3275 30.4198 33.3169 30.4198C33.2958 30.4198 33.243 30.152 33.2007 29.8307C33.0528 28.6881 32.3027 26.046 31.6371 24.3501C29.9679 20.1191 27.3901 16.6736 24.4954 14.7813C23.946 14.4243 23.4812 14.1208 23.4601 14.1029C23.4495 14.0672 23.534 13.5852 23.6502 12.9961C24.6856 7.96179 22.9952 2.23124 19.9843 0.517437C19.1497 0.0532799 18.1355 -0.107388 17.3114 0.0711327ZM19.1074 2.67755C20.4386 3.17741 21.5162 4.71269 22.1395 6.96207C22.4036 7.90823 22.4353 8.21172 22.4353 9.88982C22.4353 11.6393 22.4142 11.8357 22.0867 12.9604C20.4386 18.6731 15.7056 18.6731 14.1103 12.9604C13.7934 11.8536 13.7723 11.6215 13.7723 9.88982C13.7723 8.21172 13.804 7.90823 14.0681 6.96207C14.6703 4.7841 15.695 3.28452 16.9734 2.73111C17.8608 2.33836 18.1989 2.3205 19.1074 2.67755ZM14.7548 18.0483C14.7759 18.0483 14.4062 18.2803 13.9413 18.5303C12.0714 19.5478 11.4481 20.3512 11.7227 21.3866C11.7861 21.6187 11.9763 21.9222 12.1242 22.0293C12.3672 22.19 12.5362 22.1364 13.3074 21.5651C16.0859 19.5478 19.4772 19.3336 22.2663 20.9939C22.7628 21.2974 23.4073 21.7258 23.6819 21.9757C24.3052 22.4934 24.6644 22.4577 24.9497 21.8329C25.4357 20.7261 24.7173 19.7442 22.6255 18.6017C22.0233 18.2803 21.5479 17.9768 21.5479 17.9233C21.5584 17.8697 21.7909 17.477 22.0761 17.0485L22.5938 16.263L23.6502 16.9057C27.6965 19.3158 30.9082 24.9035 31.9541 31.366C32.4823 34.5972 32.4189 38.5961 31.785 41.863C30.9399 46.2011 29.165 50.0215 26.7563 52.7172L25.6258 53.9847L25.6153 57.2338L25.6047 60.5007L24.2102 60.5543L22.8051 60.6078V58.2692C22.8051 57.0017 22.7734 55.9484 22.7311 55.9484C22.6783 55.9484 22.3825 56.0734 22.0655 56.2162C21.1781 56.6268 19.2131 57.0195 18.1249 57.0195C16.9945 57.0195 15.3887 56.6446 14.2054 56.1269C13.7406 55.9305 13.3497 55.7699 13.3391 55.7699C13.318 55.7699 13.2863 56.7874 13.2757 58.0371L13.244 60.3222L11.8389 60.3757L10.4338 60.4293L10.455 57.0195L10.4655 53.6098L9.6098 52.6279C8.57446 51.4139 7.4863 49.7358 6.73621 48.1827L6.18685 47.0223H4.06335C2.0455 47.0223 1.93985 47.0045 1.70743 46.6296L1.46444 46.2547V40.2206C1.46444 32.8298 1.3271 33.4011 3.05971 33.2762L4.24295 33.1869L4.48594 31.6159C4.91909 28.8845 5.59523 26.6173 6.7996 23.8859C6.9475 23.5467 6.91581 23.4218 6.17628 21.7437C5.722 20.7439 5.42619 19.9049 5.47902 19.8156C5.65862 19.5121 6.75734 19.9227 7.53913 20.5833L8.33148 21.2438L9.12383 20.2441C10.0958 19.0301 11.5643 17.6912 12.7686 16.9236L13.6666 16.3344L14.1949 17.1735C14.4801 17.6377 14.7337 18.0304 14.7548 18.0483ZM35.8419 32.3121C35.9686 32.4014 35.9792 32.4907 35.8841 32.8477C35.7573 33.294 35.7045 33.3476 35.4404 33.169C35.2714 33.0619 35.208 32.5442 35.3453 32.33C35.4298 32.1693 35.62 32.1693 35.8419 32.3121Z" fill="black"/>
<path d="M8.57452 30.0092C8.43718 30.0628 8.19419 30.3305 8.01459 30.6162C7.65539 31.241 7.58144 32.2229 7.84556 33.0798C8.1308 34.0081 9.04993 34.2937 9.60986 33.6153C10.6452 32.3657 9.85284 29.6165 8.57452 30.0092Z" fill="black"/>
</svg>
