<svg width="38" height="64" viewBox="0 0 38 64" fill="none" xmlns="http://www.w3.org/2000/svg">
<path d="M3.02264 1.36838C1.86421 2.08858 0.332078 5.02476 0.0704951 7.12994C-0.265826 9.51213 0.63103 12.1159 2.12579 13.2793C2.8358 13.8333 4.25582 14.1103 6.23637 14.1103H9.22589V16.6033C9.22589 17.9883 9.41274 19.0963 9.59958 19.0963C10.0854 19.0963 10.0854 7.46234 9.59958 5.57875C9.41274 4.80316 8.92694 3.69516 8.47851 3.03037L7.73113 1.92238H20.8476C32.5441 1.92238 34.0763 2.03317 35.0479 2.86417C37.0658 4.63696 37.2526 6.07735 37.2526 20.1489C37.2526 28.2926 37.4021 32.9462 37.6263 32.9462C37.8505 32.9462 38 28.348 38 20.2043C38 6.35435 37.8505 5.08015 35.9447 2.47637L34.9357 1.09138L19.3903 0.980583C10.8328 0.925182 3.47107 1.09138 3.02264 1.36838ZM6.98375 2.75337C8.47851 3.91676 9.22589 6.24355 9.22589 9.95532V13.0023H7.54429C5.90005 13.0023 5.90005 13.0023 6.23637 11.5619C6.46059 10.7863 6.49796 9.56752 6.38585 8.79193C6.16164 7.40694 4.14371 5.41255 3.69528 6.13275C3.54581 6.35435 3.65792 6.63134 3.95687 6.79754C4.74162 7.18534 5.86269 9.01353 5.86269 9.95532C5.86269 10.3985 5.52636 11.2849 5.07794 11.9497C4.10634 13.3901 2.68632 13.0023 1.49052 11.0079C0.481554 9.40133 0.406816 8.01633 1.19156 5.57875C2.2379 2.25477 4.77899 1.03598 6.98375 2.75337Z" fill="black"/>
<path d="M17.4471 11.8944C17.4471 12.2268 19.6893 12.4484 23.3888 12.4484C26.9762 12.4484 29.4426 12.2268 29.5921 11.8944C29.7415 11.5066 27.6489 11.3404 23.6504 11.3404C19.764 11.3404 17.4471 11.562 17.4471 11.8944Z" fill="black"/>
<path d="M12.9628 16.8803C12.9628 17.2127 14.2707 17.4343 16.1391 17.4343C18.0076 17.4343 19.3155 17.2127 19.3155 16.8803C19.3155 16.5479 18.0076 16.3263 16.1391 16.3263C14.2707 16.3263 12.9628 16.5479 12.9628 16.8803Z" fill="black"/>
<path d="M20.8103 16.8803C20.8103 17.2127 21.9314 17.4343 23.4261 17.4343C24.9209 17.4343 26.042 17.2127 26.042 16.8803C26.042 16.5479 24.9209 16.3263 23.4261 16.3263C21.9314 16.3263 20.8103 16.5479 20.8103 16.8803Z" fill="black"/>
<path d="M31.2736 16.8803C31.2736 17.1573 31.946 17.4343 32.7679 17.4343C33.5898 17.4343 34.2623 17.1573 34.2623 16.8803C34.2623 16.5479 33.5898 16.3263 32.7679 16.3263C31.946 16.3263 31.2736 16.5479 31.2736 16.8803Z" fill="black"/>
<path d="M9.52478 21.6446C9.33794 21.8662 9.22583 29.0682 9.22583 37.6551C9.22583 52.0036 9.2632 53.3332 9.89847 54.1642C10.459 54.9398 11.7669 55.106 18.0449 55.2168L25.4813 55.383L25.5934 59.6488C25.6682 62.031 25.8177 63.97 25.9298 63.97C26.0792 63.97 26.6771 63.3052 27.2377 62.4742L28.284 60.9784L29.3303 62.4742C29.8909 63.3052 30.4888 63.97 30.6382 63.97C30.7877 63.97 30.8998 61.9756 30.8998 59.538V55.106H33.852C37.9626 55.106 37.9999 55.0506 37.9999 44.1923C37.9999 39.2063 37.8505 35.6608 37.6262 35.4392C37.402 35.2176 37.2526 36.7134 37.2526 39.5387V44.0261H35.571C34.6367 44.0261 33.8893 44.2477 33.8893 44.5801C33.8893 44.8571 34.6367 45.1341 35.571 45.1341H37.2526V48.6797C37.2526 53.998 37.2526 53.998 33.852 53.998H30.8998V51.8375C30.8998 50.2309 31.124 49.3999 31.6472 48.8459C32.3199 48.1257 32.432 47.5717 32.3199 44.2477L32.2077 40.5359L30.1525 38.8739L28.0972 37.2119L26.2287 38.8739L24.3603 40.4805L24.2482 44.2477C24.136 47.5717 24.2482 48.1257 24.9208 48.8459C25.444 49.3999 25.6682 50.2309 25.6682 51.8375V53.998H18.0449C9.33794 53.998 9.97321 54.3858 9.97321 48.6797V45.1341H16.3259C20.3244 45.1341 22.6787 44.9125 22.6787 44.5801C22.6787 44.2477 20.3244 44.0261 16.3259 44.0261H9.97321L9.89847 32.6138C9.82373 26.3536 9.67426 21.423 9.52478 21.6446ZM30.003 39.9265C31.6472 41.3669 31.6472 41.3669 31.6472 44.4693V47.6271L29.9282 48.9567L28.2093 50.3417L26.565 49.0121L24.9208 47.6271V44.4693C24.9208 41.3669 24.9208 41.3115 26.5277 39.9265C27.3871 39.1509 28.1345 38.4861 28.2093 38.4861C28.284 38.4861 29.0688 39.1509 30.003 39.9265ZM29.1809 50.9511L30.1525 50.0093V55.9924V61.9202L29.2182 60.646L28.284 59.3718L27.3498 60.646L26.4156 61.9202V56.0478V50.1201L27.3124 50.9511C28.1719 51.7821 28.3214 51.7821 29.1809 50.9511Z" fill="black"/>
<path d="M27.9103 41.8101C27.9103 42.0871 28.2465 42.5857 28.6575 42.9181C29.1058 43.2505 29.4046 44.0815 29.4046 44.8571C29.4046 45.6327 29.5914 46.2421 29.7782 46.2421C30.5254 46.2421 30.1518 42.9735 29.3299 42.1425C28.3586 41.1453 27.9103 41.0345 27.9103 41.8101Z" fill="black"/>
<path d="M14.0837 21.8663C14.0837 22.1433 14.7562 22.4203 15.6155 22.4203C16.5121 22.4203 17.0351 22.1987 16.8857 21.8663C16.7736 21.5339 16.0638 21.3123 15.354 21.3123C14.6441 21.3123 14.0837 21.5339 14.0837 21.8663Z" fill="black"/>
<path d="M18.7549 21.8663C18.6054 22.2541 21.2586 22.4203 26.3782 22.4203C31.3856 22.4203 34.263 22.1987 34.263 21.8663C34.263 21.5339 31.4603 21.3123 26.6397 21.3123C21.9312 21.3123 18.9044 21.5339 18.7549 21.8663Z" fill="black"/>
<path d="M12.776 27.4062C12.9254 27.7386 15.5786 27.9602 19.5024 27.9602C23.4261 27.9602 26.0793 27.7386 26.2288 27.4062C26.3783 27.0184 24.0614 26.8522 19.5024 26.8522C14.9434 26.8522 12.6265 27.0184 12.776 27.4062Z" fill="black"/>
<path d="M27.9103 27.4062C27.9103 27.7386 29.2182 27.9602 31.0866 27.9602C32.9551 27.9602 34.263 27.7386 34.263 27.4062C34.263 27.0738 32.9551 26.8522 31.0866 26.8522C29.2182 26.8522 27.9103 27.0738 27.9103 27.4062Z" fill="black"/>
<path d="M12.9628 32.3922C12.9628 32.7246 16.2139 32.9462 21.9313 32.9462C27.6488 32.9462 30.8999 32.7246 30.8999 32.3922C30.8999 32.0598 27.6488 31.8382 21.9313 31.8382C16.2139 31.8382 12.9628 32.0598 12.9628 32.3922Z" fill="black"/>
</svg>
