<svg width="29" height="29" viewBox="0 0 29 29" fill="none" xmlns="http://www.w3.org/2000/svg">
<path d="M27.1392 7.25004C26.2088 7.67296 25.2058 7.95087 24.1667 8.08379C25.23 7.44337 26.0517 6.42837 26.4383 5.20796C25.4354 5.81212 24.3238 6.23504 23.1517 6.47671C22.1971 5.43754 20.8558 4.83337 19.3333 4.83337C16.4938 4.83337 14.1738 7.15337 14.1738 10.0171C14.1738 10.428 14.2221 10.8267 14.3067 11.2013C10.005 10.9838 6.17459 8.91754 3.62501 5.78796C3.17792 6.54921 2.92417 7.44337 2.92417 8.38587C2.92417 10.1863 3.83042 11.7813 5.23209 12.6875C4.37417 12.6875 3.57667 12.4459 2.87584 12.0834V12.1196C2.87584 14.633 4.66417 16.7355 7.03251 17.2067C6.27213 17.4148 5.47387 17.4437 4.70042 17.2913C5.02861 18.3214 5.67136 19.2227 6.53832 19.8686C7.40527 20.5145 8.45284 20.8724 9.53376 20.8921C7.70148 22.3427 5.43025 23.1267 3.09334 23.1155C2.68251 23.1155 2.27167 23.0913 1.86084 23.043C4.15667 24.5171 6.88751 25.375 9.81167 25.375C19.3333 25.375 24.5654 17.4725 24.5654 10.6213C24.5654 10.3917 24.5654 10.1742 24.5533 9.94462C25.5683 9.21962 26.4383 8.30129 27.1392 7.25004Z" fill="white"/>
</svg>
