<svg width="28" height="28" viewBox="0 0 28 28" fill="none" xmlns="http://www.w3.org/2000/svg">
<path d="M23.9881 9.13833H22.2747V6.52738C22.2747 2.92427 18.4366 0 13.7075 0C8.97841 0 5.14031 2.92427 5.14031 6.52738V9.13833H3.42688C1.54209 9.13833 0 10.3133 0 11.7493V24.804C0 26.2401 1.54209 27.415 3.42688 27.415H23.9881C25.8729 27.415 27.415 26.2401 27.415 24.804V11.7493C27.415 10.3133 25.8729 9.13833 23.9881 9.13833ZM8.56719 6.52738C8.56719 4.36029 10.8632 2.61095 13.7075 2.61095C16.5518 2.61095 18.8478 4.36029 18.8478 6.52738V9.13833H8.56719V6.52738ZM23.9881 24.804H3.42688V11.7493H23.9881V24.804ZM13.7075 20.8876C15.5923 20.8876 17.1344 19.7127 17.1344 18.2767C17.1344 16.8406 15.5923 15.6657 13.7075 15.6657C11.8227 15.6657 10.2806 16.8406 10.2806 18.2767C10.2806 19.7127 11.8227 20.8876 13.7075 20.8876Z" fill="white"/>
<path d="M23.9881 9.13833H22.2747V6.52738C22.2747 2.92427 18.4366 0 13.7075 0C8.97841 0 5.14031 2.92427 5.14031 6.52738V9.13833H3.42688C1.54209 9.13833 0 10.3133 0 11.7493V24.804C0 26.2401 1.54209 27.415 3.42688 27.415H23.9881C25.8729 27.415 27.415 26.2401 27.415 24.804V11.7493C27.415 10.3133 25.8729 9.13833 23.9881 9.13833ZM8.56719 6.52738C8.56719 4.36029 10.8632 2.61095 13.7075 2.61095C16.5518 2.61095 18.8478 4.36029 18.8478 6.52738V9.13833H8.56719V6.52738ZM23.9881 24.804H3.42688V11.7493H23.9881V24.804ZM13.7075 20.8876C15.5923 20.8876 17.1344 19.7127 17.1344 18.2767C17.1344 16.8406 15.5923 15.6657 13.7075 15.6657C11.8227 15.6657 10.2806 16.8406 10.2806 18.2767C10.2806 19.7127 11.8227 20.8876 13.7075 20.8876Z" fill="white"/>
</svg>
