<svg width="29" height="29" viewBox="0 0 29 29" fill="none" xmlns="http://www.w3.org/2000/svg">
<path d="M12.0833 18.125L18.3545 14.5L12.0833 10.875V18.125ZM26.0516 8.66371C26.2087 9.23163 26.3175 9.99288 26.39 10.9595C26.4745 11.9262 26.5108 12.76 26.5108 13.485L26.5833 14.5C26.5833 17.1462 26.39 19.0916 26.0516 20.3362C25.7495 21.4237 25.0487 22.1245 23.9612 22.4266C23.3933 22.5837 22.3541 22.6925 20.7591 22.765C19.1883 22.8495 17.7504 22.8858 16.4212 22.8858L14.5 22.9583C9.43704 22.9583 6.28329 22.765 5.03871 22.4266C3.95121 22.1245 3.25038 21.4237 2.94829 20.3362C2.79121 19.7683 2.68246 19.007 2.60996 18.0404C2.52538 17.0737 2.48913 16.24 2.48913 15.515L2.41663 14.5C2.41663 11.8537 2.60996 9.90829 2.94829 8.66371C3.25038 7.57621 3.95121 6.87538 5.03871 6.57329C5.60663 6.41621 6.64579 6.30746 8.24079 6.23496C9.81163 6.15038 11.2495 6.11413 12.5787 6.11413L14.5 6.04163C19.5629 6.04163 22.7166 6.23496 23.9612 6.57329C25.0487 6.87538 25.7495 7.57621 26.0516 8.66371Z" fill="white"/>
</svg>
